<?xml version="1.0" standalone="no"?>
<!DOCTYPE svg PUBLIC "-//W3C//DTD SVG 20010904//EN"
 "http://www.w3.org/TR/2001/REC-SVG-20010904/DTD/svg10.dtd">
<svg version="1.0" xmlns="http://www.w3.org/2000/svg"
 width="1024.000000pt" height="1024.000000pt" viewBox="0 0 1024.000000 1024.000000"
 preserveAspectRatio="xMidYMid meet">
<metadata>
Created by potrace 1.14, written by Peter Selinger 2001-2017
</metadata>
<g transform="translate(0.000000,1024.000000) scale(0.100000,-0.100000)"
fill="#000000" stroke="none">
<path d="M5097 8582 c-24 -26 -25 -213 -1 -236 18 -19 38 -20 65 -6 17 10 19
22 19 119 0 92 -3 110 -18 124 -24 22 -45 21 -65 -1z"/>
<path d="M6377 8253 c-3 -4 -8 -22 -11 -38 -4 -18 -19 -38 -36 -50 -36 -24
-37 -32 -6 -56 13 -10 29 -32 36 -49 7 -16 18 -30 24 -30 18 0 36 22 36 42 0
11 13 27 30 36 38 21 38 33 0 60 -16 12 -33 36 -38 54 -8 31 -26 47 -35 31z"/>
<path d="M3820 8165 c-5 -14 -10 -30 -10 -35 0 -5 -13 -19 -30 -32 -36 -26
-38 -45 -6 -59 13 -6 31 -27 40 -46 19 -40 35 -39 55 4 8 17 24 36 37 42 32
14 30 36 -5 57 -20 12 -33 30 -38 53 -10 43 -30 51 -43 16z"/>
<path d="M5096 8064 c-14 -14 -16 -85 -16 -638 0 -591 1 -624 18 -639 25 -23
59 -21 72 2 15 30 14 1263 -2 1279 -17 17 -54 15 -72 -4z"/>
<path d="M3708 7623 c-6 -16 -25 -40 -42 -54 l-30 -27 35 -33 c18 -19 39 -43
45 -53 13 -24 44 -15 44 13 0 10 15 31 32 46 l33 28 -31 26 c-16 14 -35 38
-42 54 -6 15 -16 27 -22 27 -6 0 -16 -12 -22 -27z"/>
<path d="M6456 7619 c-14 -11 -26 -29 -26 -39 0 -17 52 -70 68 -70 14 1 72 60
72 74 0 17 -51 56 -73 56 -8 0 -26 -9 -41 -21z"/>
<path d="M4572 7489 c-12 -5 -25 -15 -28 -23 -7 -18 5 -131 41 -386 14 -102
30 -221 36 -265 13 -102 16 -113 40 -120 29 -10 58 4 65 30 5 19 -41 401 -84
699 -8 56 -33 80 -70 65z"/>
<path d="M7251 7478 c-4 -13 -12 -39 -16 -58 -10 -45 -38 -100 -61 -122 -11
-9 -36 -23 -56 -31 -48 -20 -48 -41 1 -66 54 -28 84 -67 105 -139 18 -57 36
-79 56 -67 5 3 18 33 29 68 27 77 44 100 101 130 60 31 65 59 13 75 -60 18
-92 59 -117 148 -22 81 -40 101 -55 62z m41 -278 c-14 -19 -27 -36 -28 -38 0
-1 -12 15 -26 35 l-25 38 26 33 26 32 26 -32 27 -32 -26 -36z"/>
<path d="M2957 7483 c-3 -5 -12 -35 -22 -68 -26 -90 -43 -115 -102 -141 -65
-29 -71 -56 -18 -74 49 -16 92 -71 112 -140 23 -85 59 -90 84 -12 22 71 56
118 103 143 58 30 60 54 9 75 -73 30 -103 71 -123 167 -7 36 -16 57 -25 57 -8
0 -16 -3 -18 -7z m23 -185 c0 -7 9 -24 19 -38 19 -24 19 -25 0 -51 -10 -15
-19 -32 -19 -38 0 -20 -15 -10 -38 25 l-22 36 20 28 c11 15 20 33 20 39 0 15
20 14 20 -1z"/>
<path d="M5626 7469 c-9 -13 -16 -44 -16 -69 -1 -25 -9 -103 -19 -175 -10 -71
-15 -134 -11 -138 3 -4 19 -3 33 2 15 6 34 8 42 5 20 -8 22 -2 39 177 21 209
22 202 -25 214 -21 5 -30 2 -43 -16z"/>
<path d="M4112 7008 c-7 -7 -12 -21 -12 -33 0 -27 146 -374 167 -397 30 -33
83 -17 83 25 0 21 -146 383 -162 405 -13 15 -60 16 -76 0z"/>
<path d="M5565 7010 c-2 -3 -11 -67 -21 -143 -16 -132 -16 -138 1 -157 45 -50
84 -10 95 97 8 74 16 132 26 180 3 19 -1 21 -47 25 -28 1 -52 1 -54 -2z"/>
<path d="M6064 6995 c-33 -50 -164 -358 -164 -384 0 -33 16 -51 45 -51 32 0
50 25 95 133 22 54 59 139 81 189 35 76 39 94 30 114 -15 34 -65 33 -87 -1z"/>
<path d="M3607 6939 c-15 -11 -27 -26 -27 -32 0 -30 278 -525 303 -538 15 -9
25 -7 46 9 14 10 27 25 28 33 3 21 -279 520 -303 536 -18 12 -24 11 -47 -8z"/>
<path d="M2666 6934 c-41 -41 -23 -66 275 -378 48 -50 113 -121 145 -158 61
-72 94 -85 120 -50 30 38 19 54 -196 287 -51 55 -98 105 -240 258 -55 59 -78
68 -104 41z"/>
<path d="M6575 6928 c-9 -13 -75 -129 -146 -258 -136 -247 -145 -274 -100
-297 37 -18 56 -2 101 85 22 42 53 100 68 127 98 168 172 306 172 318 0 20
-33 47 -58 47 -12 0 -28 -10 -37 -22z"/>
<path d="M7496 6908 c-38 -39 -321 -352 -424 -469 -41 -46 -43 -50 -30 -76 23
-49 56 -42 118 24 29 32 81 87 114 123 34 36 95 103 136 150 40 47 79 90 85
95 41 39 105 126 105 143 0 20 -33 52 -54 52 -5 0 -27 -19 -50 -42z"/>
<path d="M7882 6611 c-6 -16 -20 -34 -31 -41 -25 -13 -28 -38 -6 -47 9 -3 25
-24 37 -46 l20 -41 19 23 c11 13 19 29 19 36 0 6 11 17 25 23 32 15 32 37 -1
59 -14 9 -30 27 -35 40 -12 32 -35 29 -47 -6z"/>
<path d="M2302 6607 c-26 -28 -27 -45 -6 -75 21 -31 68 -29 100 3 31 31 28 43
-16 73 -41 28 -51 28 -78 -1z"/>
<path d="M2840 6324 c-6 -14 -10 -29 -10 -34 0 -5 -13 -16 -30 -25 -16 -9 -30
-22 -30 -30 0 -8 14 -21 30 -30 17 -9 30 -21 30 -28 0 -7 6 -22 14 -32 12 -16
16 -17 30 -6 9 7 16 21 16 31 0 10 16 28 37 40 l37 22 -35 31 c-20 18 -41 44
-47 60 -14 34 -30 35 -42 1z"/>
<path d="M1616 6284 c-37 -36 -12 -78 68 -113 34 -16 228 -95 431 -176 204
-81 388 -156 410 -165 22 -10 129 -59 238 -109 109 -50 208 -91 220 -91 35 0
59 22 55 51 -2 19 -21 33 -83 66 -157 83 -395 188 -745 328 -195 79 -401 161
-457 184 -115 46 -116 47 -137 25z"/>
<path d="M8559 6285 c-14 -8 -183 -78 -375 -155 -629 -255 -947 -395 -966
-424 -13 -19 -9 -53 8 -67 22 -18 48 -9 334 116 135 59 331 141 435 182 105
41 271 108 370 149 99 42 198 83 220 91 75 31 96 71 57 106 -22 20 -48 21 -83
2z"/>
<path d="M5114 6249 c-4 -6 -24 -45 -45 -86 -55 -106 -102 -167 -172 -220 -34
-25 -66 -50 -71 -54 -5 -4 31 -51 81 -103 49 -52 108 -125 131 -162 39 -65 40
-69 24 -90 -9 -11 -51 -64 -93 -115 -100 -122 -270 -360 -350 -488 l-63 -101
-25 17 c-14 10 -65 38 -113 63 l-88 46 51 88 c27 49 48 94 45 102 -3 7 -17 20
-31 30 -24 16 -27 16 -46 -2 -12 -11 -42 -54 -67 -96 -24 -43 -46 -78 -48 -78
-2 0 -50 13 -106 29 -114 33 -221 51 -296 51 l-50 0 23 69 c13 39 34 93 46
121 12 28 20 52 18 54 -2 1 -51 25 -109 53 -66 32 -129 72 -169 107 -36 31
-68 56 -72 56 -16 0 -28 -31 -54 -140 -15 -63 -41 -144 -57 -180 -29 -65 -30
-90 -4 -90 24 0 169 -78 208 -113 l38 -32 -51 -98 c-63 -122 -102 -215 -140
-335 -27 -83 -32 -91 -49 -82 -10 6 -22 15 -25 20 -10 16 -141 98 -223 139
-146 73 -315 132 -412 143 -22 3 -26 11 -42 78 -10 41 -23 109 -30 150 -7 41
-16 78 -20 81 -5 3 -30 2 -56 -2 -69 -11 -171 -11 -257 2 -42 6 -79 9 -82 5
-3 -3 -1 -30 6 -59 21 -94 31 -220 22 -282 -5 -33 -6 -63 -2 -67 3 -4 49 -3
101 2 52 4 127 5 165 3 l71 -6 12 -38 c7 -22 50 -119 96 -216 126 -266 165
-386 256 -792 28 -123 60 -246 72 -273 37 -87 137 -155 310 -212 216 -72 697
-148 1123 -177 243 -17 1089 -18 1310 -1 640 48 1129 156 1310 289 56 42 78
94 119 283 90 410 172 691 250 847 20 40 36 74 36 77 0 2 18 34 39 71 22 37
43 85 46 106 6 37 8 38 58 44 29 4 103 2 166 -4 63 -6 116 -9 118 -7 2 2 -2
35 -9 74 -13 77 -3 179 29 279 9 29 14 56 10 59 -3 4 -56 1 -116 -6 -79 -10
-131 -11 -186 -4 -41 5 -80 7 -86 3 -6 -3 -24 -73 -41 -155 -16 -82 -35 -152
-41 -156 -7 -4 -23 -8 -37 -8 -42 0 -190 -45 -285 -85 -112 -48 -199 -95 -293
-158 -41 -27 -75 -47 -76 -45 -1 1 -10 32 -20 68 -30 111 -98 272 -164 384
l-35 59 24 19 c65 51 116 82 177 107 70 29 86 49 59 79 -25 27 -53 110 -77
224 -12 59 -28 112 -35 118 -10 8 -29 -4 -76 -45 -66 -58 -156 -113 -222 -136
-53 -19 -62 -32 -47 -71 33 -88 60 -171 60 -183 0 -8 -25 -14 -77 -18 -43 -3
-132 -20 -198 -37 -66 -18 -129 -34 -140 -36 -16 -4 -28 8 -57 58 -21 35 -50
79 -66 98 -29 34 -29 34 -56 17 -15 -10 -29 -24 -32 -31 -3 -8 15 -52 40 -98
25 -47 46 -87 46 -91 0 -3 -32 -22 -72 -42 -39 -20 -84 -45 -99 -56 -15 -10
-31 -19 -36 -19 -4 1 -32 42 -61 91 -80 135 -172 263 -311 436 -70 85 -132
165 -140 177 -13 20 -10 30 29 104 34 65 58 96 121 153 43 39 79 75 79 79 0 5
-15 18 -34 29 -41 26 -125 112 -162 166 -15 22 -42 73 -61 113 -33 71 -45 83
-59 61z m45 -251 c16 -29 46 -68 65 -87 l35 -34 -48 -56 c-27 -31 -56 -71 -65
-89 l-17 -33 -49 64 c-27 36 -61 74 -76 86 l-26 21 31 26 c17 14 50 55 73 90
23 35 43 64 44 64 2 0 16 -24 33 -52z m68 -660 c157 -198 242 -317 344 -479
l50 -81 -23 -16 c-115 -81 -335 -311 -451 -472 -16 -24 -18 -24 -30 -6 -92
141 -241 306 -371 413 -44 37 -85 70 -89 74 -5 4 -3 17 3 30 26 49 157 239
259 374 123 163 114 151 147 190 14 17 32 42 42 58 9 15 19 27 23 27 3 0 46
-51 96 -112z m-1622 -8 c16 -16 49 -37 74 -47 25 -9 47 -17 48 -18 5 -3 -39
-130 -48 -139 -4 -5 -22 3 -41 19 -18 15 -52 36 -76 46 l-43 19 16 30 c8 16
18 50 22 75 3 25 9 45 12 45 4 0 20 -13 36 -30z m3089 -46 c7 -27 16 -56 20
-65 5 -12 -1 -20 -25 -30 -18 -7 -51 -27 -74 -44 l-41 -32 -22 70 c-12 38 -20
73 -17 77 3 4 16 11 30 14 15 4 45 20 67 36 23 17 43 29 45 27 2 -2 9 -26 17
-53z m-4107 -407 c6 -45 10 -82 9 -82 0 0 -40 1 -87 3 l-87 3 -11 75 c-6 41
-11 78 -11 82 0 4 40 6 88 4 l88 -3 11 -82z m1368 73 c127 -22 222 -46 230
-60 3 -4 -11 -41 -30 -82 -42 -88 -107 -284 -129 -388 -21 -102 -36 -239 -36
-327 l0 -72 -57 -11 c-55 -12 -58 -11 -73 11 -54 83 -118 158 -220 260 -100
101 -115 120 -109 140 60 207 115 343 192 482 37 65 39 67 76 67 22 0 92 -9
156 -20z m2549 -2 c55 -85 216 -487 216 -540 0 -9 -53 -70 -118 -135 -70 -71
-135 -147 -162 -191 l-45 -72 -55 6 c-30 4 -58 8 -61 10 -3 2 -9 52 -12 112
-14 237 -54 408 -158 672 -26 66 -30 83 -19 90 17 11 177 48 255 59 110 16
143 13 159 -11z m1331 -12 c-3 -12 -9 -47 -12 -78 l-6 -58 -57 0 c-32 0 -71
-3 -87 -6 l-30 -6 8 64 c15 111 7 103 104 104 83 0 86 -1 80 -20z m-3443 -142
c54 -30 98 -59 98 -63 0 -5 -24 -57 -54 -117 -86 -173 -153 -367 -171 -496 -4
-26 -12 -52 -19 -57 -6 -5 -44 -12 -85 -16 l-74 -7 7 103 c4 57 14 139 22 182
20 103 86 334 120 417 14 36 30 75 35 88 5 12 12 22 16 22 4 0 51 -25 105 -56z
m1626 -46 c41 -94 88 -250 116 -388 17 -88 40 -309 32 -317 -8 -9 -125 18
-134 31 -5 6 -19 54 -31 106 -41 167 -110 335 -204 493 -22 37 -38 69 -36 71
19 14 205 103 210 100 4 -2 25 -45 47 -96z m-1275 -199 c169 -161 351 -398
332 -430 -3 -4 -71 -10 -152 -13 -82 -4 -240 -14 -351 -22 -112 -9 -205 -14
-207 -12 -6 7 26 151 49 221 37 109 169 387 184 387 4 0 69 -59 145 -131z
m1009 -26 c73 -146 140 -326 154 -412 l7 -43 -39 6 c-21 3 -111 10 -199 16
-88 6 -178 13 -200 15 -22 2 -93 4 -158 4 -137 1 -143 6 -100 76 15 26 36 61
46 78 28 47 129 166 194 228 91 89 197 179 210 179 6 0 45 -66 85 -147z
m-2897 109 c140 -38 321 -128 461 -228 44 -31 80 -57 80 -58 1 0 -7 -41 -17
-91 -11 -49 -22 -154 -26 -232 l-6 -141 -28 -6 c-15 -3 -78 -24 -139 -47 -61
-23 -112 -40 -114 -38 -1 2 -10 40 -20 84 -49 215 -105 370 -222 615 -41 86
-74 159 -74 163 0 5 8 6 18 3 9 -3 49 -14 87 -24z m4580 -104 c-105 -209 -192
-455 -236 -668 -6 -30 -12 -56 -13 -57 -2 -3 -243 77 -276 91 -12 5 -15 30
-17 124 -1 68 -11 162 -22 221 -11 57 -18 107 -15 112 2 4 46 36 96 70 149 99
342 185 523 234 24 6 18 -10 -40 -127z m-3834 -360 c81 -91 156 -188 146 -188
-2 0 -65 -13 -140 -30 -76 -16 -140 -30 -144 -30 -9 0 4 228 18 293 6 31 15
57 20 57 5 0 49 -46 100 -102z m3173 -35 c20 -140 21 -203 2 -203 -13 0 -224
46 -259 56 -14 5 -10 15 30 67 63 83 193 211 203 201 4 -5 15 -59 24 -121z
m-1074 -158 c514 -39 879 -103 1283 -227 113 -35 167 -56 167 -66 0 -17 -40
-215 -44 -220 -2 -2 -21 7 -42 19 -64 36 -223 89 -324 109 -232 46 -419 79
-470 84 -644 64 -1006 78 -1480 56 -357 -16 -498 -28 -750 -61 -138 -18 -235
-34 -492 -84 -120 -24 -267 -69 -335 -103 -34 -18 -64 -28 -67 -23 -3 5 -13
40 -21 77 -8 38 -19 86 -24 107 -6 24 -5 39 1 43 12 7 146 51 273 89 44 13
148 39 231 58 139 33 205 44 554 97 422 63 1046 82 1540 45z m-55 -369 c33 -3
132 -11 220 -17 352 -23 828 -98 1015 -160 86 -28 162 -67 155 -80 -21 -33
-218 -105 -407 -148 -276 -62 -496 -91 -908 -116 -244 -15 -834 -22 -957 -10
-32 2 -141 10 -243 15 -278 16 -700 68 -880 109 -185 42 -410 122 -410 146 0
18 127 72 234 100 271 72 725 135 1121 155 116 6 233 12 260 13 78 5 733 -1
800 -7z"/>
<path d="M4572 4258 c-19 -19 -14 -46 12 -63 41 -27 89 13 66 55 -12 23 -59
27 -78 8z"/>
<path d="M4782 4258 c-28 -28 -6 -68 39 -68 37 0 52 21 39 54 -7 20 -16 26
-38 26 -15 0 -33 -5 -40 -12z"/>
<path d="M5416 4268 c-21 -12 -21 -64 0 -72 44 -17 82 12 69 53 -7 22 -46 32
-69 19z"/>
<path d="M5632 4273 c-38 -14 -34 -75 7 -86 25 -6 61 19 61 42 0 28 -40 53
-68 44z"/>
<path d="M3132 4248 c-16 -16 -15 -53 2 -67 8 -7 27 -11 43 -9 25 3 28 7 28
43 0 37 -2 40 -30 43 -17 2 -36 -3 -43 -10z"/>
<path d="M3146 4035 c-9 -9 -16 -24 -16 -34 0 -43 58 -56 84 -19 13 19 14 25
2 43 -17 26 -49 31 -70 10z"/>
<path d="M7042 4248 c-16 -16 -15 -53 2 -68 21 -16 56 -9 72 15 27 41 -39 88
-74 53z"/>
<path d="M7042 4038 c-7 -7 -12 -21 -12 -33 0 -12 5 -26 12 -33 29 -29 78 -7
78 35 0 35 -53 56 -78 31z"/>
<path d="M4810 3885 c-19 -22 -15 -67 6 -82 28 -20 66 -12 83 18 13 24 13 29
-2 53 -20 30 -67 36 -87 11z"/>
<path d="M5050 3881 c-17 -32 -11 -60 15 -77 32 -21 67 -12 85 20 11 22 11 29
-4 51 -21 32 -80 36 -96 6z"/>
<path d="M5294 3875 c-19 -29 -14 -48 19 -70 51 -33 106 20 73 70 -22 34 -70
34 -92 0z"/>
<path d="M5530 3880 c-24 -24 -25 -38 -4 -68 28 -41 104 -20 104 29 0 25 -35
59 -60 59 -11 0 -29 -9 -40 -20z"/>
<path d="M4566 3874 c-35 -34 -9 -94 40 -94 26 0 64 32 64 53 0 20 -44 57 -67
57 -12 0 -29 -7 -37 -16z"/>
<path d="M5766 3864 c-23 -22 -20 -60 6 -78 29 -21 51 -20 71 2 23 26 21 58
-5 76 -29 20 -52 20 -72 0z"/>
<path d="M4320 3850 c-11 -11 -20 -24 -20 -29 0 -17 42 -61 59 -61 31 0 61 30
61 60 0 49 -62 68 -100 30z"/>
<path d="M6012 3844 c-44 -30 -14 -94 45 -94 27 0 53 34 46 61 -6 20 -39 49
-58 49 -6 0 -21 -7 -33 -16z"/>
<path d="M4074 3805 c-19 -28 -11 -60 18 -76 50 -27 105 26 78 76 -19 35 -73
35 -96 0z"/>
<path d="M6248 3809 c-22 -12 -24 -62 -3 -79 35 -29 95 -7 95 35 0 43 -52 68
-92 44z"/>
<path d="M3842 3784 c-24 -17 -29 -53 -10 -72 16 -16 73 -15 85 1 21 27 22 48
3 67 -24 24 -48 25 -78 4z"/>
<path d="M6474 3747 c-15 -61 57 -95 86 -41 19 35 3 58 -43 62 -31 3 -37 0
-43 -21z"/>
<path d="M3590 3741 c-31 -59 13 -111 68 -80 33 18 40 54 16 80 -23 25 -70 25
-84 0z"/>
<path d="M6694 3715 c-15 -23 -15 -27 0 -50 19 -29 56 -33 80 -9 20 19 20 34
0 62 -21 30 -59 29 -80 -3z"/>
<path d="M3364 3675 c-36 -55 35 -106 79 -57 22 24 21 45 -1 65 -27 24 -59 21
-78 -8z"/>
<path d="M6905 3660 c-22 -25 -16 -51 17 -69 22 -13 29 -13 42 -2 19 16 21 55
4 68 -27 20 -46 21 -63 3z"/>
<path d="M3157 3623 c-4 -3 -7 -19 -7 -35 0 -20 6 -31 23 -37 42 -17 84 31 57
64 -13 15 -61 20 -73 8z"/>
<path d="M7377 6253 c-29 -7 -41 -51 -22 -80 9 -13 23 -27 31 -30 27 -10 62
14 69 48 6 27 3 36 -15 51 -22 18 -30 20 -63 11z"/>
<path d="M3330 6190 c-25 -25 -25 -52 -1 -74 26 -24 62 -17 80 15 13 24 13 29
-2 53 -21 31 -50 33 -77 6z"/>
<path d="M6862 6194 c-30 -21 -29 -59 3 -80 54 -35 115 37 65 78 -27 22 -39
23 -68 2z"/>
<path d="M1787 5702 c-36 -40 -12 -84 53 -97 36 -8 298 -83 380 -109 154 -50
253 -77 267 -74 10 2 24 15 33 30 29 53 8 64 -280 152 -133 41 -409 116 -426
116 -6 0 -18 -8 -27 -18z"/>
<path d="M8315 5690 c-146 -40 -482 -139 -539 -158 -40 -14 -51 -23 -57 -45
-6 -21 -3 -33 11 -47 21 -21 22 -21 290 57 85 25 217 62 294 83 76 21 143 43
148 48 6 6 11 22 11 37 0 55 -33 60 -158 25z"/>
<path d="M4433 5390 c-28 -12 -63 -67 -63 -100 0 -54 48 -99 106 -100 108 -1
139 154 40 195 -40 17 -52 18 -83 5z"/>
<path d="M5722 5365 c-51 -42 -51 -101 -3 -152 30 -31 90 -31 126 0 20 16 28
35 32 69 5 42 3 50 -25 78 -39 39 -88 41 -130 5z"/>
<path d="M1666 5213 c-2 -10 -8 -34 -11 -53 -16 -79 -61 -136 -127 -164 -47
-19 -49 -41 -5 -55 17 -6 45 -23 61 -37 27 -25 76 -115 76 -140 0 -6 7 -17 15
-24 20 -17 42 1 50 43 13 58 57 117 108 143 26 13 47 31 47 39 0 9 -24 26 -55
40 -50 21 -58 30 -80 77 -13 29 -27 74 -30 101 -6 36 -11 47 -25 47 -10 0 -21
-8 -24 -17z m48 -277 l-27 -34 -31 31 -31 32 22 18 c12 10 25 26 28 37 6 18 9
16 36 -15 l30 -34 -27 -35z"/>
<path d="M8535 5218 c-2 -7 -11 -38 -19 -68 -23 -81 -49 -117 -103 -143 -64
-30 -66 -50 -7 -79 56 -28 76 -52 109 -133 24 -61 50 -81 61 -48 38 116 69
159 137 188 57 24 48 51 -25 74 -21 7 -46 23 -56 36 -17 22 -42 90 -56 158 -6
27 -33 37 -41 15z m25 -187 c0 -5 11 -22 24 -38 l24 -28 -34 -39 c-22 -26 -34
-34 -34 -23 0 9 -13 26 -29 38 l-29 22 29 24 c16 14 29 31 29 39 0 8 5 14 10
14 6 0 10 -4 10 -9z"/>
<path d="M3048 4963 c-42 -44 -41 -101 1 -144 78 -78 209 19 157 116 -33 61
-113 75 -158 28z"/>
<path d="M7059 4961 c-48 -49 -38 -125 21 -156 105 -54 202 72 119 154 -42 43
-98 43 -140 2z"/>
<path d="M2080 4290 c-52 -10 -116 -21 -143 -24 -35 -5 -52 -14 -64 -32 -22
-34 -5 -74 33 -74 47 0 328 51 341 62 18 14 16 53 -3 72 -19 19 -41 19 -164
-4z"/>
<path d="M8004 4285 c-13 -20 -15 -31 -6 -50 12 -25 3 -23 237 -65 l120 -21
17 21 c23 28 23 53 1 73 -15 13 -285 67 -338 67 -8 0 -22 -11 -31 -25z"/>
<path d="M2100 3794 c-168 -47 -335 -94 -372 -105 -71 -20 -94 -43 -83 -79 14
-43 35 -42 221 9 591 161 586 160 597 200 6 25 -18 61 -41 60 -9 0 -154 -39
-322 -85z"/>
<path d="M7804 3872 c-16 -11 -23 -47 -12 -66 16 -28 56 -42 328 -116 146 -39
305 -83 353 -97 84 -24 89 -24 108 -7 30 27 25 70 -10 88 -15 8 -120 40 -232
70 -112 30 -270 73 -351 96 -154 42 -166 44 -184 32z"/>
<path d="M7675 3396 c-27 -41 -5 -65 138 -151 73 -44 150 -92 171 -107 62 -45
116 -34 116 22 0 33 -11 42 -135 115 -55 32 -132 78 -171 102 -81 49 -98 52
-119 19z"/>
<path d="M2358 3312 c-86 -54 -164 -104 -172 -111 -22 -18 -20 -54 4 -76 20
-18 22 -18 58 -1 20 10 104 59 185 110 151 93 174 117 150 155 -24 38 -63 24
-225 -77z"/>
<path d="M2610 3140 c-41 -33 -92 -74 -112 -91 -24 -19 -38 -39 -38 -53 0 -26
28 -56 52 -56 17 0 141 92 201 148 42 41 50 84 18 102 -33 17 -44 12 -121 -50z"/>
<path d="M7528 3189 c-21 -12 -24 -58 -5 -81 22 -30 191 -159 215 -165 36 -9
69 28 57 63 -10 27 -216 194 -239 194 -6 0 -19 -5 -28 -11z"/>
<path d="M2998 2803 c-95 -91 -179 -177 -186 -189 -10 -20 -9 -26 11 -49 19
-22 26 -25 47 -17 36 14 359 329 366 357 8 33 -12 65 -41 65 -18 0 -70 -45
-197 -167z"/>
<path d="M7015 2946 c-12 -18 -14 -30 -6 -43 13 -26 338 -335 368 -351 21 -11
28 -11 49 3 48 31 35 53 -128 208 -241 228 -250 234 -283 183z"/>
<path d="M3600 2708 c-23 -29 -76 -97 -118 -152 -43 -54 -105 -133 -139 -176
-67 -82 -79 -121 -44 -140 36 -19 56 -10 99 43 95 117 310 396 315 410 9 24
-16 62 -45 65 -22 3 -34 -6 -68 -50z"/>
<path d="M6554 2735 c-16 -24 -15 -27 11 -67 48 -72 344 -436 360 -442 19 -7
53 13 61 36 3 10 0 28 -7 40 -14 27 -264 349 -322 414 -45 51 -78 57 -103 19z"/>
<path d="M5102 2544 l-22 -15 0 -452 c0 -490 1 -497 54 -497 46 0 46 -3 46
492 0 452 -1 468 -19 478 -26 13 -33 13 -59 -6z"/>
<path d="M4048 2503 c-29 -33 -208 -425 -208 -455 0 -36 69 -64 87 -35 11 18
171 364 193 418 17 42 17 49 4 68 -18 26 -55 27 -76 4z"/>
<path d="M6142 2508 c-22 -22 -13 -55 61 -220 118 -263 129 -283 159 -286 20
-2 31 4 44 23 16 25 15 29 -81 245 -54 120 -105 226 -114 235 -21 18 -52 20
-69 3z"/>
<path d="M4386 2338 c-14 -21 -92 -302 -104 -371 -5 -31 20 -67 48 -67 30 0
47 33 73 135 14 55 38 142 52 193 26 89 26 94 10 113 -24 26 -61 24 -79 -3z"/>
<path d="M5802 2348 c-16 -16 -15 -53 4 -113 8 -27 31 -108 49 -179 19 -71 41
-136 49 -144 18 -18 62 -9 75 16 12 22 -89 410 -110 423 -20 12 -53 11 -67 -3z"/>
<path d="M4697 2062 c-35 -39 -7 -102 45 -102 24 0 58 39 58 66 0 46 -72 71
-103 36z"/>
<path d="M5487 2062 c-36 -40 -9 -102 45 -102 51 0 78 69 40 103 -24 22 -65
21 -85 -1z"/>
</g>
</svg>
